# xmcd
#
# Track frame offsets:
#	150
#	21640
#	37677
#	54547
#	73202
#	88565
#	106065
#	124972
#	140412
#	156927
#	176895
#	193440
#	205012
#	222055
#
# Disc length: 3174 seconds
#
# Revision: 1
# Processed by: cddbd v1.4PL0 Copyright (c) Steve Scherf et al.
# Submitted via: EasyCDDAExtractor 5.1.0
#
DISCID=d00c640e
DTITLE=Jose Charles - Higher Ground
DYEAR=1900
DGENRE=Country
TTITLE0=Mon Amour Cest Toi
TTITLE1=Lo Bout Semen
TTITLE2=Through Messiah
TTITLE3=Brumes Bleues
TTITLE4=Rakont Mwan Lavi
TTITLE5=Let The Good Time Roll
TTITLE6=Bijoux De Locean
TTITLE7=Resilta Travayer
TTITLE8=My Music
TTITLE9=Lavwa Dan Divan
TTITLE10=Colere
TTITLE11=Holiday Song
TTITLE12=Wildest Fantasy
TTITLE13=Jenifer
EXTD=
EXTT0=
EXTT1=
EXTT2=
EXTT3=
EXTT4=
EXTT5=
EXTT6=
EXTT7=
EXTT8=
EXTT9=
EXTT10=
EXTT11=
EXTT12=
EXTT13=
PLAYORDER=
